<?xml version="1.0" standalone="no"?>
<!DOCTYPE svg PUBLIC "-//W3C//DTD SVG 20010904//EN"
 "http://www.w3.org/TR/2001/REC-SVG-20010904/DTD/svg10.dtd">
<svg version="1.0" xmlns="http://www.w3.org/2000/svg"
 width="244.000000pt" height="251.000000pt" viewBox="0 0 244.000000 251.000000"
 preserveAspectRatio="xMidYMid meet">

<g transform="translate(0.000000,251.000000) scale(0.100000,-0.100000)"
fill="#000000" stroke="none">
<path d="M1242 1984 c-30 -8 -103 -39 -163 -70 l-110 -56 -272 3 c-226 3 -276
1 -294 -11 -13 -8 -23 -20 -23 -26 0 -9 148 -42 370 -82 25 -4 45 -12 45 -17
0 -6 -32 -40 -70 -77 l-71 -67 -106 -2 c-97 -1 -108 -3 -128 -24 -12 -13 -18
-25 -13 -28 10 -6 72 -20 93 -22 24 -1 90 -17 90 -21 0 -2 -15 -36 -34 -76
-56 -118 -73 -168 -91 -268 -33 -180 -20 -366 37 -525 87 -245 299 -441 514
-476 81 -13 287 -3 247 12 -31 11 -29 17 10 28 29 10 28 10 -13 5 -25 -4 -48
-12 -52 -18 -6 -8 -8 -8 -8 1 0 7 7 16 17 21 15 9 14 11 -5 28 -12 9 -19 21
-16 25 2 5 -8 16 -23 25 -33 21 -92 76 -93 87 0 4 5 7 11 7 5 0 7 -6 3 -13 -4
-7 -2 -7 7 2 9 9 10 15 3 18 -25 9 -74 51 -109 93 -52 63 -84 138 -94 222 l-9
73 1 -82 c1 -46 5 -83 8 -83 10 0 33 -60 26 -67 -4 -3 -11 5 -17 18 -10 22
-10 22 -5 -6 4 -20 3 -25 -3 -16 -8 11 -10 11 -15 0 -4 -8 -3 0 0 16 6 27 5
29 -10 16 -21 -17 -47 0 -42 27 2 9 4 21 4 25 1 5 7 5 14 1 8 -5 8 -3 -2 9 -7
9 -17 14 -22 12 -4 -3 -18 6 -31 19 -13 13 -32 26 -42 28 -10 1 -23 11 -27 20
-5 10 -13 26 -17 35 -5 10 -19 20 -32 23 -13 3 -27 13 -32 23 -4 9 -12 25 -17
35 -4 9 -17 19 -27 20 -10 2 -36 21 -56 43 -21 21 -47 39 -59 39 -19 0 -21 4
-14 38 4 20 9 55 11 77 18 205 130 404 301 532 110 83 186 129 387 234 217
113 303 183 250 203 -27 10 -127 5 -182 -10z m-272 -1516 c0 -14 -15 -8 -33
12 -10 12 -15 26 -11 32 7 10 43 -27 44 -44z m34 -44 c9 -22 -3 -32 -14 -14
-12 19 -12 30 -1 30 5 0 12 -7 15 -16z m56 -49 c7 -8 10 -15 7 -15 -3 0 -14
-3 -24 -6 -15 -5 -16 -4 -3 5 13 10 13 12 0 21 -8 5 -10 10 -4 10 6 0 17 -7
24 -15z"/>
<path d="M4 1426 c-3 -8 -4 -109 -1 -223 4 -194 6 -214 31 -293 96 -293 303
-532 578 -667 72 -36 208 -86 215 -79 2 2 -18 16 -44 31 -92 53 -194 148 -274
255 -62 83 -119 226 -145 365 -16 86 -16 271 0 385 4 25 3 23 -5 -8 -7 -31
-15 -42 -25 -38 -7 3 -13 2 -11 -2 3 -10 -10 -12 -30 -6 -34 10 -48 21 -52 40
-4 25 -100 121 -125 125 -10 2 -23 12 -27 22 -5 9 -13 25 -18 35 -4 9 -20 18
-35 20 -22 3 -24 6 -16 22 7 13 7 21 0 25 -6 3 -13 -1 -16 -9z"/>
<path d="M373 1275 c-3 -9 -3 -18 -1 -21 3 -3 8 4 11 16 6 23 -1 27 -10 5z"/>
<path d="M1139 340 c13 -11 32 -20 44 -20 26 0 21 4 -28 24 l-40 16 24 -20z"/>
<path d="M1240 310 c8 -5 24 -10 34 -10 26 0 18 6 -19 14 -22 5 -26 4 -15 -4z"/>
<path d="M1385 180 c-3 -5 -1 -10 4 -10 6 0 11 5 11 10 0 6 -2 10 -4 10 -3 0
-8 -4 -11 -10z"/>
</g>
</svg>
